<svg xmlns="http://www.w3.org/2000/svg" width="28.484" height="30.01" viewBox="0 0 28.484 30.01">
  <g id="Group_11" data-name="Group 11" transform="translate(-57.41)">
    <path id="Path_6" data-name="Path 6" d="M66.85,0V29.66H57.41v-5.8h2.83V5.8H57.41V0Z" fill="#2a2d4c"/>
    <rect id="Rectangle_2" data-name="Rectangle 2" width="5.83" height="5.8" transform="translate(77.67 18.751) rotate(-45)" fill="#2a2d4c"/>
    <path id="Path_7" data-name="Path 7" d="M70.21,15.4c0-1.49-.94-1.84-1.68-1.84h-.51V8.32a4.574,4.574,0,0,1,2.85-.86c3.52,0,5.98,1.91,5.98,7.62v7.31c0,5.71-2.46,7.62-5.98,7.62a4.928,4.928,0,0,1-2.85-.82V23.91h.51c.74,0,1.68-.35,1.68-1.84V15.39Z" fill="#2a2d4c"/>
  </g>
</svg>
